Normalized EMG Linear Envelopes
nRows=121
nColumns=4

endheader
time	 med_gas_r	  soleus_r	 tib_ant_r	
2.50504	  0.007704	  0.021340	  0.004005	
2.57661	  0.007447	  0.022238	  0.003829	
2.64819	  0.007537	  0.022757	  0.003793	
2.71976	  0.007746	  0.022586	  0.003871	
2.79133	  0.007440	  0.021617	  0.004002	
2.8629	  0.006808	  0.020432	  0.004148	
2.93448	  0.006334	  0.019387	  0.004209	
3.00605	  0.006166	  0.018975	  0.004146	
3.07762	  0.006203	  0.018901	  0.004010	
3.14919	  0.006504	  0.018366	  0.003954	
3.22077	  0.006961	  0.017946	  0.003932	
3.29234	  0.007357	  0.018349	  0.003925	
3.36391	  0.007332	  0.019222	  0.003917	
3.43548	  0.007067	  0.020159	  0.003939	
3.50706	  0.006798	  0.021487	  0.003935	
3.57863	  0.006607	  0.023017	  0.003849	
3.6502	  0.006611	  0.024324	  0.003867	
3.72177	  0.006929	  0.025443	  0.003933	
3.79335	  0.007336	  0.026382	  0.003862	
3.86492	  0.007816	  0.026407	  0.003780	
3.93649	  0.008302	  0.025397	  0.003826	
4.00806	  0.008030	  0.025206	  0.003966	
4.07964	  0.007017	  0.027042	  0.004072	
4.15121	  0.005978	  0.029147	  0.004034	
4.22278	  0.005486	  0.029542	  0.003973	
4.29435	  0.005615	  0.027272	  0.004029	
4.36593	  0.006063	  0.024118	  0.004126	
4.4375	  0.006945	  0.023412	  0.004249	
4.50907	  0.008109	  0.024313	  0.004231	
4.58065	  0.009240	  0.024498	  0.004109	
4.65222	  0.009533	  0.022397	  0.004014	
4.72379	  0.008353	  0.020256	  0.003834	
4.79536	  0.005272	  0.018716	  0.003478	
4.86694	 -0.000575	  0.017511	  0.002956	
4.93851	 -0.008327	  0.015863	  0.002646	
5.01008	 -0.012148	  0.014446	  0.003425	
5.08165	  0.003095	  0.018414	  0.006804	
5.15323	  0.062866	  0.037442	  0.014463	
5.2248	  0.190225	  0.081057	  0.026180	
5.29637	  0.367866	  0.149195	  0.038311	
5.36794	  0.517753	  0.229039	  0.047213	
5.43952	  0.619290	  0.318242	  0.051167	
5.51109	  0.696331	  0.397348	  0.051789	
5.58266	  0.723486	  0.430094	  0.051704	
5.65423	  0.734092	  0.424076	  0.051536	
5.72581	  0.744499	  0.415366	  0.055967	
5.79738	  0.725481	  0.428566	  0.065832	
5.86895	  0.694721	  0.458934	  0.076573	
5.94052	  0.680079	  0.481047	  0.085467	
6.0121	  0.694689	  0.494829	  0.094819	
6.08367	  0.726342	  0.516314	  0.099803	
6.15524	  0.762475	  0.547048	  0.093773	
6.22681	  0.800340	  0.585733	  0.084573	
6.29839	  0.843243	  0.613143	  0.077320	
6.36996	  0.865056	  0.617160	  0.073577	
6.44153	  0.833147	  0.612421	  0.072522	
6.5131	  0.776891	  0.610533	  0.071719	
6.58468	  0.726226	  0.601448	  0.070358	
6.65625	  0.686994	  0.590245	  0.071381	
6.72782	  0.660505	  0.572779	  0.075578	
6.7994	  0.657376	  0.549712	  0.075146	
6.87097	  0.693630	  0.535673	  0.067480	
6.94254	  0.738624	  0.549680	  0.059365	
7.01411	  0.774472	  0.585329	  0.053952	
7.08569	  0.784954	  0.612245	  0.050813	
7.15726	  0.782467	  0.624573	  0.049096	
7.22883	  0.783849	  0.631131	  0.049339	
7.3004	  0.792577	  0.646031	  0.052059	
7.37198	  0.802209	  0.673403	  0.056658	
7.44355	  0.802445	  0.698330	  0.062525	
7.51512	  0.806093	  0.718781	  0.069771	
7.58669	  0.802650	  0.732384	  0.076864	
7.65827	  0.794334	  0.725044	  0.081816	
7.72984	  0.777350	  0.684332	  0.084105	
7.80141	  0.754921	  0.632137	  0.083206	
7.87298	  0.734294	  0.602916	  0.079897	
7.94456	  0.717794	  0.591556	  0.077273	
8.01613	  0.716541	  0.590715	  0.076589	
8.0877	  0.731511	  0.604370	  0.075395	
8.15927	  0.751582	  0.628018	  0.073288	
8.23085	  0.760792	  0.657674	  0.071772	
8.30242	  0.759603	  0.683150	  0.069196	
8.37399	  0.770929	  0.714258	  0.068372	
8.44556	  0.805019	  0.772043	  0.068980	
8.51714	  0.826244	  0.830403	  0.069600	
8.58871	  0.805759	  0.845247	  0.071452	
8.66028	  0.782154	  0.815835	  0.074415	
8.73185	  0.775989	  0.773646	  0.075983	
8.80343	  0.754586	  0.749883	  0.075961	
8.875	  0.721115	  0.772726	  0.075895	
8.94657	  0.718490	  0.828315	  0.078339	
9.01815	  0.764321	  0.874685	  0.082128	
9.08972	  0.820939	  0.887137	  0.083321	
9.16129	  0.826276	  0.846465	  0.079777	
9.23286	  0.766493	  0.782067	  0.072237	
9.30444	  0.694084	  0.744031	  0.065990	
9.37601	  0.639908	  0.762214	  0.063330	
9.44758	  0.591927	  0.787403	  0.066037	
9.51915	  0.517582	  0.760412	  0.070664	
9.59073	  0.455001	  0.697353	  0.067913	
9.6623	  0.435812	  0.656699	  0.059546	
9.73387	  0.430222	  0.658988	  0.051529	
9.80544	  0.404985	  0.693331	  0.045178	
9.87702	  0.353322	  0.713972	  0.040256	
9.94859	  0.282860	  0.684846	  0.038170	
10.0202	  0.203825	  0.643661	  0.037421	
10.0917	  0.132644	  0.612516	  0.038278	
10.1633	  0.083389	  0.577312	  0.042035	
10.2349	  0.058200	  0.534822	  0.046615	
10.3065	  0.050078	  0.508292	  0.051714	
10.378	  0.048663	  0.486402	  0.054655	
10.4496	  0.048805	  0.456325	  0.056363	
10.5212	  0.051174	  0.435128	  0.061710	
10.5927	  0.054388	  0.430388	  0.074671	
10.6643	  0.055474	  0.439317	  0.087665	
10.7359	  0.051492	  0.454952	  0.095488	
10.8075	  0.044912	  0.462495	  0.100691	
10.879	  0.038538	  0.465514	  0.106914	
10.9506	  0.035470	  0.472108	  0.113174	
11.0222	  0.034639	  0.473246	  0.119128	
11.0937	  0.033875	  0.457129	  0.124110	
